<svg width="111" height="13" viewBox="0 0 111 13" fill="none" xmlns="http://www.w3.org/2000/svg">
<path d="M2.04394 12.4564H0V0.206299H2.04394V12.4564Z" fill="black"/>
<path d="M17.6151 8.48478V0.206317H19.6591V12.6627H18.9598L11.1875 4.17791V12.4564H9.14355V0H9.8428L17.6151 8.48478Z" fill="black"/>
<path d="M30.6323 0C31.5736 0 32.4073 0.206317 33.1065 0.61895C33.8058 1.03158 34.3705 1.54738 34.7471 2.19212L33.3217 3.24949C32.999 2.78528 32.5956 2.42422 32.1384 2.16633C31.6812 1.90843 31.1702 1.77948 30.6323 1.77948C30.1213 1.77948 29.6641 1.90843 29.2876 2.14054C28.9111 2.37264 28.6959 2.75949 28.6959 3.27528C28.6959 3.50738 28.7497 3.7137 28.8304 3.86844C28.9111 4.02318 29.0456 4.17791 29.2069 4.30686C29.3683 4.43581 29.5565 4.56476 29.7717 4.66792C29.9868 4.77107 30.2289 4.90002 30.4978 5.00318L31.9232 5.62213C32.4073 5.82845 32.8376 6.06055 33.2141 6.29266C33.5906 6.52477 33.9134 6.78266 34.1823 7.06635C34.4512 7.35003 34.6395 7.65951 34.774 7.99477C34.9084 8.33004 34.9891 8.71688 34.9891 9.12951C34.9891 9.6711 34.8815 10.1611 34.6664 10.5995C34.4512 11.0379 34.1554 11.399 33.752 11.7085C33.3755 12.0179 32.9183 12.2501 32.3804 12.4048C31.8694 12.5595 31.3046 12.6627 30.6861 12.6627C29.6103 12.6627 28.669 12.4306 27.8353 11.9406C27.0016 11.4764 26.3562 10.8058 25.8721 10.0064L27.3243 8.94899C27.5126 9.20688 27.7009 9.46478 27.9429 9.69688C28.1581 9.92899 28.427 10.1353 28.6959 10.3158C28.9649 10.4964 29.2607 10.6253 29.5834 10.7543C29.9062 10.8574 30.2827 10.909 30.6861 10.909C31.3315 10.909 31.8694 10.7543 32.2728 10.4448C32.6762 10.1353 32.8914 9.72267 32.8914 9.18109C32.8914 8.94899 32.8376 8.74267 32.7569 8.56214C32.6762 8.38162 32.5418 8.22688 32.3804 8.09793C32.219 7.96898 32.0039 7.84003 31.7887 7.71109C31.5736 7.58214 31.3046 7.47898 31.0357 7.35003L29.6103 6.73108C29.2069 6.55056 28.8035 6.34424 28.4539 6.13792C28.1043 5.93161 27.7815 5.67371 27.5126 5.41581C27.2437 5.13213 27.0285 4.84844 26.8671 4.48739C26.7058 4.15212 26.6251 3.76528 26.6251 3.32686C26.6251 2.81107 26.7327 2.37264 26.9478 1.96001C27.163 1.54738 27.4588 1.21211 27.8084 0.902636C28.1849 0.61895 28.6153 0.386844 29.0993 0.232106C29.5565 0.0773688 30.0675 0 30.6323 0Z" fill="black"/>
<path d="M50.8297 1.95999H46.5267V12.4564H44.4827V1.95999H40.1797V0.206299H50.8297V1.95999Z" fill="black"/>
<path d="M58.6826 12.4564H56.6387V0.206299H58.6826V12.4564Z" fill="black"/>
<path d="M74.2538 8.48478V0.206317H76.2978V12.6627H75.5985L67.8262 4.17791V12.4564H65.7822V0H66.4815L74.2538 8.48478Z" fill="black"/>
<path d="M92.7838 1.95999H88.4808V12.4564H86.4368V1.95999H82.1338V0.206299H92.7838V1.95999Z" fill="black"/>
<path d="M104.106 0C105.047 0 105.908 0.154738 106.715 0.490002C107.521 0.799477 108.248 1.26369 108.839 1.83106C109.458 2.39843 109.915 3.06896 110.291 3.84265C110.641 4.61634 110.829 5.4416 110.829 6.34424C110.829 7.24687 110.641 8.09793 110.291 8.87162C109.942 9.64531 109.458 10.3158 108.839 10.8832C108.221 11.4506 107.521 11.889 106.715 12.1985C105.908 12.508 105.02 12.6885 104.106 12.6885C103.191 12.6885 102.304 12.5337 101.47 12.1985C100.663 11.889 99.9372 11.4248 99.3456 10.8574C98.7539 10.29 98.2698 9.61952 97.9202 8.84583C97.5705 8.07214 97.4092 7.24687 97.4092 6.34424C97.4092 5.4416 97.5705 4.61634 97.9202 3.84265C98.2698 3.06896 98.7539 2.39843 99.3456 1.83106C99.9641 1.26369 100.663 0.825267 101.47 0.490002C102.331 0.154738 103.191 0 104.106 0ZM104.133 1.80527C103.487 1.80527 102.869 1.90843 102.304 2.14054C101.739 2.37264 101.255 2.68212 100.852 3.06896C100.448 3.4558 100.125 3.94581 99.8834 4.48739C99.6414 5.05476 99.5338 5.64792 99.5338 6.29266C99.5338 6.9374 99.6414 7.55635 99.8834 8.12372C100.125 8.69109 100.448 9.1553 100.852 9.56794C101.255 9.98057 101.739 10.29 102.304 10.5222C102.869 10.7543 103.487 10.8574 104.133 10.8574C104.778 10.8574 105.397 10.7543 105.962 10.5222C106.526 10.29 107.01 9.98057 107.414 9.56794C107.817 9.1553 108.14 8.69109 108.382 8.12372C108.624 7.55635 108.732 6.96319 108.732 6.29266C108.732 5.64792 108.624 5.05476 108.382 4.51318C108.14 3.9716 107.817 3.48159 107.414 3.09475C107.01 2.68212 106.526 2.37264 105.962 2.14054C105.397 1.90843 104.805 1.80527 104.133 1.80527Z" fill="black"/>
</svg>
