<?xml version="1.0" standalone="no"?>
<!DOCTYPE svg PUBLIC "-//W3C//DTD SVG 20010904//EN"
 "http://www.w3.org/TR/2001/REC-SVG-20010904/DTD/svg10.dtd">
<svg version="1.0" xmlns="http://www.w3.org/2000/svg"
 width="608.000000pt" height="608.000000pt" viewBox="0 0 608.000000 608.000000"
 preserveAspectRatio="xMidYMid meet">
<metadata>
Created by potrace 1.14, written by Peter Selinger 2001-2017
</metadata>
<g transform="translate(0.000000,608.000000) scale(0.100000,-0.100000)"
fill="#000000" stroke="none">
<path d="M1459 5596 c-2 -2 -34 -6 -71 -10 -36 -3 -72 -8 -80 -11 -7 -2 -26
-6 -43 -9 -113 -18 -281 -77 -417 -148 -100 -53 -98 -52 -183 -113 -275 -195
-490 -494 -591 -820 -15 -50 -29 -94 -30 -100 -1 -5 -5 -26 -8 -45 -4 -19 -9
-46 -12 -60 -14 -71 -19 -139 -18 -280 1 -173 6 -222 41 -355 8 -33 17 -67 18
-75 28 -120 178 -401 279 -520 12 -14 166 -169 342 -345 305 -304 491 -487
1364 -1345 206 -203 483 -475 615 -605 132 -130 256 -245 275 -255 45 -22 115
-22 161 1 19 9 140 120 268 246 128 125 302 296 386 378 85 83 294 287 465
455 171 168 378 370 460 450 81 80 306 300 500 490 473 462 488 478 578 606
129 182 209 366 251 574 17 84 35 257 33 315 -2 47 -13 184 -16 201 -2 12 -7
37 -10 55 -8 49 -12 69 -26 119 -7 25 -14 52 -15 60 -17 78 -132 335 -171 381
-8 8 -14 19 -14 23 0 5 -17 31 -37 60 -233 321 -527 528 -894 630 -30 9 -71
18 -90 21 -19 3 -72 12 -119 19 -82 14 -375 15 -445 2 -16 -3 -50 -8 -75 -11
-185 -25 -488 -153 -655 -277 -109 -82 -181 -145 -327 -292 l-138 -140 -133
135 c-73 74 -155 152 -182 174 -26 22 -55 47 -64 56 -9 8 -32 26 -51 39 -19
13 -37 27 -40 30 -10 11 -69 50 -76 50 -4 0 -15 6 -23 14 -38 32 -279 146
-311 146 -10 0 -21 4 -24 9 -5 7 -23 12 -71 21 -2 1 -19 6 -37 11 -89 26 -218
41 -369 45 -92 2 -168 2 -170 0z"/>
</g>
</svg>
