<svg width="66" height="576" viewBox="0 0 66 576" fill="none" xmlns="http://www.w3.org/2000/svg">
<path fill-rule="evenodd" clip-rule="evenodd" d="M63.389 554.54C65.1312 550.348 65.9353 545.876 65.9353 540.984C65.9353 536.233 65.1312 531.761 63.389 527.289C61.6468 523.096 59.3686 519.462 56.4202 516.248C53.4719 513.173 49.9875 510.658 45.9671 508.841C41.9467 507.024 37.6582 506.186 32.9677 506.186C28.2772 506.186 23.9887 507.024 19.9682 508.841C15.9478 510.658 12.4634 513.173 9.5151 516.248C6.56677 519.323 4.15451 523.096 2.54633 527.289C0.804139 531.621 5.36166e-05 536.233 5.34089e-05 540.984C5.32012e-05 545.736 0.938156 550.348 2.54633 554.54C4.15451 558.733 6.43276 562.367 9.38108 565.581C12.3294 568.795 15.8138 571.311 19.8342 573.128C23.8547 574.944 28.2772 575.923 32.9677 575.923C37.6582 575.923 41.9466 574.944 45.9671 573.128C49.9875 571.171 53.4719 568.795 56.4202 565.581C59.3686 562.506 61.7808 558.733 63.389 554.54ZM54.8121 531.621C56.0182 534.556 56.5543 537.77 56.5543 541.124C56.5543 544.618 56.0182 547.693 54.8121 550.627C53.6059 553.562 51.9978 556.078 49.8535 558.174C47.8433 560.27 45.297 561.947 42.4827 563.205C39.6684 564.463 36.5861 565.022 33.2357 565.022C29.7513 565.022 26.669 564.463 23.7207 563.205C20.7723 561.947 18.3601 560.27 16.2158 558.174C14.0716 556.078 12.4634 553.562 11.2573 550.627C10.0512 547.693 9.5151 544.478 9.5151 541.124C9.5151 537.77 10.0512 534.556 11.2573 531.621C12.4634 528.686 14.0716 526.171 16.2158 524.074C18.3601 521.978 20.7723 520.301 23.7207 519.043C26.669 517.785 29.8853 517.226 33.2357 517.226C36.5861 517.226 39.6684 517.785 42.6167 519.043C45.431 520.301 47.9773 521.978 49.9875 524.074C51.9978 526.171 53.6059 528.686 54.8121 531.621ZM64.8632 385.859L21.8445 385.859L65.9353 345.47L65.9353 341.836L1.2062 341.836L1.2062 352.458L44.2249 352.458L0.134078 392.846L0.134078 396.48L64.8632 396.48L64.8632 385.859ZM65.9353 159.178C65.9353 164.07 64.8632 168.402 62.7189 172.036C60.5747 175.669 57.8944 178.604 54.544 180.561L49.0494 173.154C51.4617 171.477 53.3379 169.38 54.678 167.005C56.0182 164.629 56.6883 161.974 56.6883 159.178C56.6883 156.523 56.0182 154.147 54.8121 152.191C53.6059 150.234 51.5957 149.116 48.9154 149.116C47.7093 149.116 46.6372 149.396 45.8331 149.815C45.029 150.234 44.2249 150.933 43.5548 151.772C42.8848 152.61 42.2147 153.588 41.6786 154.706C41.5486 154.978 41.4106 155.257 41.2686 155.545L41.2685 155.545C40.8252 156.443 40.3424 157.421 39.9364 158.48L36.7201 165.887C35.648 168.402 34.4418 170.638 33.2357 172.595C32.0296 174.551 30.6894 176.228 29.2153 177.626C27.7411 179.023 26.1329 180.002 24.3907 180.7C22.6485 181.399 20.6383 181.819 18.4941 181.819C15.6798 181.819 13.1335 181.259 10.8553 180.141C8.577 179.023 6.70079 177.486 5.09262 175.39C3.48444 173.433 2.27832 171.057 1.47423 168.262C0.670144 165.607 0.13408 162.672 0.13408 159.458C0.134081 153.868 1.34021 148.976 3.88649 144.644C6.29876 140.312 9.78314 136.958 13.9376 134.442L19.4322 141.989L19.432 141.989L19.4319 141.989C18.0918 142.967 16.7518 143.945 15.5458 145.203C14.3396 146.321 13.2675 147.719 12.3294 149.116C11.3913 150.514 10.7212 152.051 10.0512 153.728C9.51511 155.405 9.24708 157.362 9.24708 159.458C9.24708 162.812 10.0512 165.607 11.6593 167.703C13.2675 169.8 15.4118 170.918 18.2261 170.918C19.4322 170.918 20.5043 170.638 21.4424 170.219C22.3805 169.8 23.1846 169.101 23.8547 168.262C24.5248 167.424 25.1948 166.306 25.8649 165.188C26.3064 164.451 26.6897 163.593 27.0916 162.694C27.2996 162.228 27.5125 161.751 27.7411 161.275L30.9575 153.868C31.8956 151.772 32.9677 149.675 34.0398 147.858C35.1119 146.042 36.4521 144.365 37.7922 142.967C39.2664 141.57 40.7405 140.452 42.6167 139.613C44.3589 138.774 46.3691 138.355 48.6474 138.355C51.3277 138.355 53.6059 138.914 55.7502 140.032C57.8944 141.15 59.6366 142.688 61.2448 144.504C62.7189 146.461 63.9251 148.697 64.7291 151.213C65.5332 153.588 65.9353 156.244 65.9353 159.178ZM64.8632 91.5382L21.8445 91.5382L65.9353 51.1495L65.9353 47.5159L1.2062 47.5159L1.2062 58.1371L44.2249 58.1371L0.134075 98.5258L0.134075 102.159L64.8632 102.159L64.8632 91.5382ZM1.20654 -2.82938e-06L1.20654 10.6212L64.8635 10.6213L64.8635 -4.68498e-08L1.20654 -2.82938e-06ZM55.7504 241.774L55.7504 264.135L64.8634 264.135L64.8634 208.792L55.7504 208.792L55.7504 231.153L1.20647 231.153L1.20647 241.774L55.7504 241.774ZM1.20647 304.942L1.20647 294.32L64.8634 294.32L64.8634 304.942L1.20647 304.942ZM55.7504 482.15L55.7504 459.789L1.20647 459.789L1.20647 449.168L55.7504 449.168L55.7504 426.808L64.8634 426.808L64.8634 482.15L55.7504 482.15Z" fill="black"/>
</svg>
