<svg width="12" height="12" viewBox="0 0 12 12" fill="none" xmlns="http://www.w3.org/2000/svg">
<path fill-rule="evenodd" clip-rule="evenodd" d="M6.35355 0.979699C6.15829 0.784436 5.84171 0.784436 5.64645 0.979699C5.45118 1.17496 5.45118 1.49154 5.64645 1.68681L9.45964 5.5H1.3335C1.05735 5.5 0.833496 5.72386 0.833496 6C0.833496 6.27614 1.05735 6.5 1.3335 6.5H9.45948L5.64645 10.313C5.45118 10.5083 5.45118 10.8249 5.64645 11.0201C5.84171 11.2154 6.15829 11.2154 6.35355 11.0201L11.0109 6.36277C11.1069 6.27166 11.1668 6.14282 11.1668 6C11.1668 5.85914 11.1086 5.73189 11.0149 5.64101L6.35355 0.979699Z" fill="black"/>
</svg>
