<svg width="60" height="60" viewBox="0 0 60 60" fill="none" xmlns="http://www.w3.org/2000/svg">
<path fill-rule="evenodd" clip-rule="evenodd" d="M30.8001 0.388884C30.4366 -0.0529904 29.7837 -0.116365 29.3419 0.247134C29.2901 0.289634 29.2426 0.337134 29.2001 0.388884L26.2001 4.38888L27.8001 5.58887L29.0001 3.98888V11.9889H31.0001V3.98888L32.2001 5.58887L33.8001 4.38888L30.8001 0.388884ZM40.9649 24.7288C40.9545 24.698 40.9422 24.668 40.9279 24.6388C40.9113 24.5883 40.8909 24.5392 40.8669 24.4918C40.8456 24.4598 40.8226 24.4292 40.7979 24.3998C40.7718 24.36 40.7426 24.3222 40.7109 24.2868C40.6813 24.2605 40.6502 24.2358 40.6179 24.2128C40.5862 24.1839 40.5528 24.1569 40.5179 24.1318L30.5179 18.1318C30.201 17.9414 29.8048 17.9414 29.4879 18.1318L19.4879 24.1318C19.4509 24.1562 19.4158 24.1832 19.3829 24.2128C19.3503 24.2358 19.3189 24.2605 19.2889 24.2868C19.2578 24.3222 19.2291 24.3595 19.2029 24.3988C19.1776 24.4283 19.1542 24.4593 19.1329 24.4918C19.1094 24.5379 19.0894 24.5857 19.0729 24.6348C19.0587 24.6658 19.0459 24.6975 19.0349 24.7298C19.0116 24.8142 18.9998 24.9013 18.9999 24.9888V34.9888C19.0001 35.3398 19.1841 35.665 19.4849 35.8458L29.4849 41.8458L29.4959 41.8508L29.5069 41.8588C29.5594 41.886 29.6143 41.9085 29.6709 41.9258L29.6789 41.9287L29.6849 41.9312L29.701 41.9383L29.701 41.9383C29.7137 41.9441 29.7265 41.9498 29.7399 41.9538C29.9102 42.0004 30.0898 42.0004 30.2599 41.9538C30.2733 41.9498 30.2861 41.9441 30.2988 41.9383L30.2989 41.9383C30.3089 41.9338 30.3188 41.9293 30.3289 41.9258C30.3855 41.9085 30.4404 41.886 30.4929 41.8588L30.5039 41.8508L30.5149 41.8458L40.5149 35.8458C40.8158 35.665 40.9998 35.3398 40.9999 34.9888V24.9888C41 24.901 40.9882 24.8135 40.9649 24.7288ZM29.9999 20.1548L33.0559 21.9888L24.9999 26.8228L21.9439 24.9888L29.9999 20.1548ZM20.9999 34.4218V26.7548L28.9999 31.5548V39.2218L20.9999 34.4218ZM29.9999 29.8228L26.9439 27.9888L34.9999 23.1548L38.0559 24.9888L29.9999 29.8228ZM30.9999 39.2228V31.5548L38.9999 26.7548V34.4228L30.9999 39.2228ZM31.0001 55.9888L32.2001 54.3888L33.8001 55.5887L30.8001 59.5887C30.7432 59.6645 30.6759 59.7319 30.6001 59.7887C30.1582 60.1201 29.5315 60.0306 29.2001 59.5887L26.2001 55.5887L27.8001 54.3888L29.0001 55.9888V47.9888H31.0001V55.9888ZM31.0002 13.9889H29.0002V15.9889H31.0002V13.9889ZM29.0002 43.9888H31.0002V45.9888H29.0002V43.9888ZM12.0001 28.9888H4.00013L5.60012 27.7888L4.40013 26.1888L0.400135 29.1888C-0.0417393 29.5202 -0.131239 30.147 0.200135 30.5888C0.25701 30.6646 0.324385 30.732 0.400135 30.7888L4.40013 33.7888L5.60012 32.1888L4.00013 30.9888H12.0001V28.9888ZM59.5998 29.1888C59.6756 29.2457 59.743 29.3131 59.7998 29.3888C60.1312 29.8307 60.0417 30.4575 59.5998 30.7888L55.5999 33.7888L54.3999 32.1888L55.9999 30.9888H47.9999V28.9888H55.9999L54.3999 27.7888L55.5999 26.1888L59.5998 29.1888ZM16 28.9889H14V30.9889H16V28.9889ZM44.0001 28.9889H46.0001V30.9889H44.0001V28.9889ZM17.9791 16.5539L12.3231 10.8979L14.3021 11.1799L14.5851 9.19988L9.63613 8.48889C9.08988 8.40776 8.58126 8.78489 8.50013 9.33126C8.48563 9.42863 8.48563 9.52763 8.50013 9.62488L9.20713 14.5739L11.1871 14.2909L10.9051 12.3119L16.5611 17.9679L17.9791 16.5539ZM50.7909 45.4037L51.4979 50.3527C51.5047 50.3998 51.5082 50.4473 51.508 50.4948C51.5079 51.0471 51.0602 51.4948 50.5079 51.4947C50.4604 51.4948 50.4129 51.4915 50.3659 51.4847L45.4169 50.7777L45.6999 48.7977L47.6769 49.0817L42.0209 43.4257L43.4349 42.0117L49.0909 47.6677L48.8089 45.6887L50.7909 45.4037ZM19.3936 17.9686L17.9794 19.3828L19.3936 20.797L20.8078 19.3828L19.3936 17.9686ZM39.1929 40.5949L40.6071 39.1807L42.0213 40.5949L40.6071 42.0091L39.1929 40.5949ZM12.3188 49.0798L17.9748 43.4238L16.5648 42.0098L10.9088 47.6658L11.1908 45.6868L9.21081 45.4038L8.49981 50.3528C8.42144 50.8994 8.80094 51.4061 9.34769 51.4846C9.39481 51.4914 9.44231 51.4948 9.48981 51.4948C9.53731 51.4949 9.58481 51.4915 9.63181 51.4847L14.5808 50.7777L14.2978 48.7978L12.3188 49.0798ZM50.3639 8.49289C50.6758 8.44664 50.9912 8.55177 51.2129 8.77589C51.4358 8.99864 51.5407 9.31314 51.4959 9.62489L50.7889 14.5739L48.8089 14.2889L49.0909 12.3119L43.4349 17.9679L42.0209 16.5539L47.6769 10.8979L45.6979 11.1799L45.4149 9.19989L50.3639 8.49289ZM19.3942 39.1814L17.98 40.5956L19.3942 42.0098L20.8084 40.5956L19.3942 39.1814ZM39.1932 19.3793L40.6074 17.9651L42.0216 19.3793L40.6074 20.7935L39.1932 19.3793Z" fill="#E72378"/>
</svg>
