<svg width="42" height="42" viewBox="0 0 42 42" fill="none" xmlns="http://www.w3.org/2000/svg">
<path fill-rule="evenodd" clip-rule="evenodd" d="M12 2C10.9391 2 9.92172 2.42143 9.17157 3.17157C8.42143 3.92172 8 4.93913 8 6C8 7.06087 8.42143 8.07828 9.17157 8.82843C9.92172 9.57857 10.9391 10 12 10H19.7053C19.6801 9.91643 19.6533 9.82946 19.6248 9.73939C19.3408 8.84268 18.8954 7.65766 18.2488 6.48192C16.9323 4.08834 14.9439 2 12 2ZM6 6C6 7.47965 6.54655 8.90296 7.52785 10H1C0.447715 10 0 10.4477 0 11V21C0 21.5523 0.447715 22 1 22H4V41C4 41.5523 4.44772 42 5 42H21H37C37.5523 42 38 41.5523 38 41V22H41C41.5523 22 42 21.5523 42 21V11C42 10.4477 41.5523 10 41 10H34.4721C35.4534 8.90296 36 7.47965 36 6C36 4.4087 35.3679 2.88258 34.2426 1.75736C33.1174 0.632141 31.5913 0 30 0C25.9439 0 23.4323 2.91166 21.9988 5.51808C21.597 6.24864 21.2671 6.97636 21 7.6463C20.7329 6.97636 20.403 6.24864 20.0012 5.51808C18.5677 2.91166 16.0561 0 12 0C10.4087 0 8.88258 0.632141 7.75736 1.75736C6.63214 2.88258 6 4.4087 6 6ZM22.2947 10H30C31.0609 10 32.0783 9.57857 32.8284 8.82843C33.5786 8.07828 34 7.06087 34 6C34 4.93913 33.5786 3.92172 32.8284 3.17157C32.0783 2.42143 31.0609 2 30 2C27.0561 2 25.0677 4.08834 23.7512 6.48192C23.1046 7.65766 22.6592 8.84268 22.3752 9.73939C22.3467 9.82946 22.3199 9.91643 22.2947 10ZM22 12V20H37H40V12H30H22ZM12 12H20V20H5H2V12H12ZM22 40H36V22H22V40ZM20 22V40H6V22H20Z" fill="#E72378"/>
</svg>
