<svg viewBox="0 0 18 20" fill="none" xmlns="http://www.w3.org/2000/svg">
<path fill-rule="evenodd" clip-rule="evenodd" d="M5.5 5C5.5 3.067 7.067 1.5 9 1.5C10.933 1.5 12.5 3.067 12.5 5C12.5 6.933 10.933 8.5 9 8.5C7.067 8.5 5.5 6.933 5.5 5ZM9 0.5C6.51472 0.5 4.5 2.51472 4.5 5C4.5 7.48528 6.51472 9.5 9 9.5C11.4853 9.5 13.5 7.48528 13.5 5C13.5 2.51472 11.4853 0.5 9 0.5ZM5 12.5C3.80653 12.5 2.66193 12.9741 1.81802 13.818C0.974106 14.6619 0.5 15.8065 0.5 17V19C0.5 19.2761 0.723858 19.5 1 19.5C1.27614 19.5 1.5 19.2761 1.5 19V17C1.5 16.0717 1.86875 15.1815 2.52513 14.5251C3.1815 13.8687 4.07174 13.5 5 13.5H13C13.9283 13.5 14.8185 13.8687 15.4749 14.5251C16.1313 15.1815 16.5 16.0717 16.5 17V19C16.5 19.2761 16.7239 19.5 17 19.5C17.2761 19.5 17.5 19.2761 17.5 19V17C17.5 15.8065 17.0259 14.6619 16.182 13.818C15.3381 12.9741 14.1935 12.5 13 12.5H5Z" fill="black"/>
</svg>
