<svg  viewBox="0 0 32 32" fill="none" xmlns="http://www.w3.org/2000/svg">
<path fill-rule="evenodd" clip-rule="evenodd" d="M9.25 2C8.52065 2 7.82118 2.28973 7.30546 2.80546C6.78973 3.32118 6.5 4.02065 6.5 4.75C6.5 5.47935 6.78973 6.17882 7.30546 6.69454C7.82118 7.21027 8.52065 7.5 9.25 7.5H14.6884C14.4778 6.85576 14.1619 6.03977 13.7175 5.23192C12.7448 3.46334 11.3189 2 9.25 2ZM4.5 4.75C4.5 5.7419 4.81024 6.70181 5.37699 7.5H1C0.447715 7.5 0 7.94772 0 8.5V16C0 16.5523 0.447715 17 1 17H3V31C3 31.5523 3.44772 32 4 32H16H28C28.5523 32 29 31.5523 29 31V17H31C31.5523 17 32 16.5523 32 16V8.5C32 7.94772 31.5523 7.5 31 7.5H26.623C27.1898 6.70181 27.5 5.7419 27.5 4.75C27.5 3.49022 26.9996 2.28204 26.1088 1.39124C25.218 0.500445 24.0098 0 22.75 0C19.5689 0 17.6198 2.28666 16.53 4.26808C16.3307 4.63049 16.1547 4.9917 16 5.34027C15.8453 4.9917 15.6693 4.63049 15.47 4.26808C14.3802 2.28666 12.4311 0 9.25 0C7.99022 0 6.78204 0.500445 5.89124 1.39124C5.00044 2.28204 4.5 3.49022 4.5 4.75ZM17.3116 7.5H22.75C23.4793 7.5 24.1788 7.21027 24.6945 6.69454C25.2103 6.17882 25.5 5.47935 25.5 4.75C25.5 4.02065 25.2103 3.32118 24.6945 2.80546C24.1788 2.28973 23.4793 2 22.75 2C20.6811 2 19.2552 3.46334 18.2825 5.23192C17.8381 6.03977 17.5222 6.85576 17.3116 7.5ZM17 9.5V15H28H30V9.5H22.75H17ZM9.25 9.5H15V15H4H2V9.5H9.25ZM17 30H27V17H17V30ZM15 17V30H5V17H15Z" fill="black"/>
</svg>
