<svg width="22" height="14" viewBox="0 0 22 14" fill="none" xmlns="http://www.w3.org/2000/svg">
<path d="M11.1329 13.875C14.3156 13.875 13.1807 11.8602 13.4264 11.2808C13.4227 10.8482 13.4191 10.432 13.4337 10.179C13.6354 10.2358 14.1112 10.4769 15.0938 11.4321C16.6109 12.9629 16.9987 13.875 18.2242 13.875H20.4802C21.1952 13.875 21.5673 13.5789 21.7534 13.3305C21.9331 13.0903 22.1091 12.6687 21.9166 12.0123C21.4133 10.432 18.4782 7.70308 18.2957 7.41525C18.3232 7.36208 18.3672 7.2915 18.3902 7.25483H18.3883C18.9677 6.48942 21.1787 3.17658 21.5041 1.85108C21.505 1.84925 21.5059 1.8465 21.5059 1.84375C21.6819 1.23875 21.5206 0.846417 21.3537 0.624583C21.1026 0.29275 20.7029 0.125 20.163 0.125H17.9071C17.1517 0.125 16.5788 0.505417 16.2892 1.19933C15.8042 2.43225 14.4421 4.96775 13.4209 5.86517C13.3897 4.59375 13.4108 3.623 13.4273 2.90158C13.4603 1.4945 13.5667 0.125 12.1064 0.125H8.56075C7.64592 0.125 6.7705 1.12417 7.71833 2.31033C8.547 3.34983 8.01625 3.92917 8.195 6.813C7.49833 6.06592 6.259 4.04833 5.38267 1.46975C5.137 0.772167 4.76483 0.125917 3.71708 0.125917H1.46117C0.546333 0.125917 0 0.624583 0 1.45967C0 3.33517 4.15158 13.875 11.1329 13.875ZM3.71708 1.50092C3.916 1.50092 3.93617 1.50092 4.08375 1.91983C4.98117 4.56258 6.99417 8.47308 8.4645 8.47308C9.56908 8.47308 9.56908 7.341 9.56908 6.91475L9.56817 3.52125C9.50767 2.39833 9.09883 1.83917 8.83025 1.5L12.0459 1.50367C12.0477 1.51925 12.0276 5.25742 12.0551 6.16308C12.0551 7.44917 13.0762 8.18617 14.6703 6.57283C16.3524 4.67442 17.5157 1.83642 17.5624 1.72092C17.6312 1.55592 17.6907 1.5 17.9071 1.5H20.163H20.1722C20.1712 1.50275 20.1712 1.5055 20.1703 1.50825C19.9641 2.47075 17.9282 5.53792 17.2471 6.49033C17.2361 6.505 17.226 6.52058 17.2159 6.53617C16.9162 7.02567 16.6723 7.5665 17.2572 8.32733H17.2581C17.3112 8.3915 17.4497 8.54183 17.6513 8.75083C18.2783 9.398 20.4288 11.6108 20.6195 12.4908C20.493 12.511 20.3555 12.4963 18.2242 12.5009C17.7705 12.5009 17.4157 11.8226 16.0618 10.4567C14.8445 9.27242 14.0543 8.78842 13.3347 8.78842C11.9377 8.78842 12.0395 9.92233 12.0523 11.2937C12.0569 12.7805 12.0477 12.3103 12.0578 12.4038C11.9762 12.4358 11.7425 12.5 11.1329 12.5C5.31667 12.5 1.529 3.26825 1.38325 1.50367C1.43367 1.49908 2.12758 1.50183 3.71708 1.50092Z" fill="black"/>
</svg>
