<svg width="30" height="32" viewBox="0 0 30 32" fill="none" xmlns="http://www.w3.org/2000/svg">
<path fill-rule="evenodd" clip-rule="evenodd" d="M5.2 0.4C5.38885 0.148194 5.68524 0 6 0H24C24.3148 0 24.6111 0.148194 24.8 0.4L29.2939 6.39188C29.4232 6.56038 29.5 6.77122 29.5 7V28C29.5 29.0609 29.0786 30.0783 28.3284 30.8284C27.5783 31.5786 26.5609 32 25.5 32H4.5C3.43913 32 2.42172 31.5786 1.67157 30.8284C0.921427 30.0783 0.5 29.0609 0.5 28V7C0.5 6.77123 0.576817 6.56041 0.706063 6.39192L5.2 0.4ZM23.5 2L26.5 6H3.5L6.5 2H23.5ZM2.5 28V8H27.5V28C27.5 28.5304 27.2893 29.0391 26.9142 29.4142C26.5391 29.7893 26.0304 30 25.5 30H4.5C3.96957 30 3.46086 29.7893 3.08579 29.4142C2.71071 29.0391 2.5 28.5304 2.5 28ZM10 13C10 12.4477 9.55229 12 9 12C8.44772 12 8 12.4477 8 13C8 14.8565 8.7375 16.637 10.0503 17.9497C11.363 19.2625 13.1435 20 15 20C16.8565 20 18.637 19.2625 19.9497 17.9497C21.2625 16.637 22 14.8565 22 13C22 12.4477 21.5523 12 21 12C20.4477 12 20 12.4477 20 13C20 14.3261 19.4732 15.5979 18.5355 16.5355C17.5979 17.4732 16.3261 18 15 18C13.6739 18 12.4021 17.4732 11.4645 16.5355C10.5268 15.5979 10 14.3261 10 13Z" fill="black"/>
</svg>
