<svg viewBox="0 0 18 20" fill="none" xmlns="http://www.w3.org/2000/svg">
<path fill-rule="evenodd" clip-rule="evenodd" d="M4.40381 3.73706C5.62279 2.51807 7.27609 1.83325 9 1.83325C10.7239 1.83325 12.3772 2.51807 13.5962 3.73706C14.8152 4.95604 15.5 6.60934 15.5 8.33325C15.5 10.848 13.8593 13.3125 12.024 15.2497C11.1269 16.1967 10.2263 16.9725 9.54895 17.5119C9.34222 17.6765 9.15703 17.8185 9 17.936C8.84297 17.8185 8.65778 17.6765 8.45105 17.5119C7.77367 16.9725 6.87311 16.1967 5.97595 15.2497C4.14074 13.3125 2.5 10.848 2.5 8.33325C2.5 6.60934 3.18482 4.95604 4.40381 3.73706ZM8.44478 19.9983C8.44505 19.9985 8.4453 19.9986 9 19.1666L8.4453 19.9986C8.7812 20.2226 9.2188 20.2226 9.5547 19.9986L9 19.1666C9.5547 19.9986 9.55495 19.9985 9.55522 19.9983L9.55592 19.9978L9.55783 19.9965L9.56368 19.9926L9.58338 19.9793C9.60001 19.968 9.62357 19.9519 9.6536 19.9311C9.71364 19.8895 9.79959 19.8291 9.90776 19.751C10.124 19.5949 10.4296 19.3673 10.7948 19.0765C11.5237 18.4961 12.4981 17.6573 13.476 16.6252C15.3907 14.604 17.5 11.6519 17.5 8.33325C17.5 6.07891 16.6045 3.9169 15.0104 2.32284C13.4163 0.728785 11.2543 -0.166748 9 -0.166748C6.74566 -0.166748 4.58365 0.728785 2.98959 2.32284C1.39553 3.9169 0.5 6.07891 0.5 8.33325C0.5 11.6519 2.60926 14.604 4.52405 16.6252C5.50189 17.6573 6.47633 18.4961 7.2052 19.0765C7.57042 19.3673 7.87601 19.5949 8.09224 19.751C8.20041 19.8291 8.28636 19.8895 8.3464 19.9311C8.37643 19.9519 8.39999 19.968 8.41662 19.9793L8.43632 19.9926L8.44217 19.9965L8.44408 19.9978L8.44478 19.9983ZM7.5 8.33325C7.5 7.50482 8.17157 6.83325 9 6.83325C9.82843 6.83325 10.5 7.50482 10.5 8.33325C10.5 9.16168 9.82843 9.83325 9 9.83325C8.17157 9.83325 7.5 9.16168 7.5 8.33325ZM9 4.83325C7.067 4.83325 5.5 6.40026 5.5 8.33325C5.5 10.2662 7.067 11.8333 9 11.8333C10.933 11.8333 12.5 10.2662 12.5 8.33325C12.5 6.40026 10.933 4.83325 9 4.83325Z" fill="black"/>
</svg>
