<svg viewBox="0 0 16 16" fill="none" xmlns="http://www.w3.org/2000/svg">
<path fill-rule="evenodd" clip-rule="evenodd" d="M1 7.16667C1 3.76091 3.76091 1 7.16667 1C10.5724 1 13.3333 3.76091 13.3333 7.16667C13.3333 8.83839 12.6681 10.3547 11.588 11.4655C11.5646 11.4819 11.5423 11.5006 11.5214 11.5214C11.5006 11.5423 11.4819 11.5646 11.4655 11.588C10.3547 12.6681 8.83839 13.3333 7.16667 13.3333C3.76091 13.3333 1 10.5724 1 7.16667ZM11.8684 12.5755C10.61 13.6704 8.96573 14.3333 7.16667 14.3333C3.20863 14.3333 0 11.1247 0 7.16667C0 3.20863 3.20863 0 7.16667 0C11.1247 0 14.3333 3.20863 14.3333 7.16667C14.3333 8.96574 13.6704 10.61 12.5755 11.8684L15.8535 15.1464C16.0488 15.3417 16.0488 15.6583 15.8535 15.8536C15.6583 16.0488 15.3417 16.0488 15.1464 15.8536L11.8684 12.5755Z" fill="black"/>
</svg>
