<svg viewBox="0 0 22 22" fill="none" xmlns="http://www.w3.org/2000/svg">
<path fill-rule="evenodd" clip-rule="evenodd" d="M2 11C2 6.02944 6.02944 2 11 2C15.9706 2 20 6.02944 20 11C20 15.9706 15.9706 20 11 20C6.02944 20 2 15.9706 2 11ZM11 0C4.92487 0 0 4.92487 0 11C0 17.0751 4.92487 22 11 22C17.0751 22 22 17.0751 22 11C22 4.92487 17.0751 0 11 0ZM6.4 12.2C6.84044 11.8697 7.46468 11.9576 7.79686 12.3958L7.8015 12.4018C7.80745 12.4093 7.81877 12.4234 7.83531 12.4431C7.86846 12.4826 7.92219 12.5442 7.99543 12.6206C8.14272 12.7743 8.36407 12.9828 8.65067 13.1913C9.22773 13.6109 10.0255 14 11 14C11.9745 14 12.7723 13.6109 13.3493 13.1913C13.6359 12.9828 13.8573 12.7743 14.0046 12.6206C14.0778 12.5442 14.1315 12.4826 14.1647 12.4431C14.1812 12.4234 14.1925 12.4093 14.1985 12.4018L14.2031 12.3958C14.5353 11.9576 15.1596 11.8697 15.6 12.2C16.0418 12.5314 16.1314 13.1582 15.8 13.6L15 13C15.8 13.6 15.7998 13.6003 15.7995 13.6006L15.799 13.6013L15.7978 13.6029L15.7951 13.6065L15.7879 13.6159L15.7666 13.6432C15.7493 13.6649 15.726 13.6938 15.6966 13.7288C15.638 13.7987 15.555 13.8933 15.4486 14.0044C15.2365 14.2257 14.9266 14.5172 14.5257 14.8087C13.7277 15.3891 12.5255 16 11 16C9.47447 16 8.27227 15.3891 7.47433 14.8087C7.07343 14.5172 6.76353 14.2257 6.55145 14.0044C6.445 13.8933 6.36201 13.7987 6.30336 13.7288C6.27401 13.6938 6.25065 13.6649 6.23341 13.6432L6.21211 13.6159L6.2049 13.6065L6.20216 13.6029L6.20101 13.6013L6.20049 13.6006C6.20024 13.6003 6.2 13.6 7 13L6.2 13.6C5.86863 13.1582 5.95817 12.5314 6.4 12.2ZM7 8C7 7.44772 7.44772 7 8 7H8.01C8.56229 7 9.01 7.44772 9.01 8C9.01 8.55229 8.56229 9 8.01 9H8C7.44772 9 7 8.55229 7 8ZM14 7C13.4477 7 13 7.44772 13 8C13 8.55229 13.4477 9 14 9H14.01C14.5623 9 15.01 8.55229 15.01 8C15.01 7.44772 14.5623 7 14.01 7H14Z" fill="black"/>
</svg>
