<svg width="12" height="12" viewBox="0 0 12 12" fill="none" xmlns="http://www.w3.org/2000/svg">
<path fill-rule="evenodd" clip-rule="evenodd" d="M6.35355 0.979699C6.15829 0.784436 5.84171 0.784436 5.64645 0.979699C5.45118 1.17496 5.45118 1.49154 5.64645 1.68681L9.45964 5.5H1.33325C1.05711 5.5 0.833252 5.72386 0.833252 6C0.833252 6.27614 1.05711 6.5 1.33325 6.5H9.45948L5.64645 10.313C5.45118 10.5083 5.45118 10.8249 5.64645 11.0201C5.84171 11.2154 6.15829 11.2154 6.35355 11.0201L11.0195 6.35415L11.0202 6.35347M11.0223 6.35139C11.2155 6.15596 11.2148 5.84093 11.0202 5.64637L6.35355 0.979699" fill="black"/>
</svg>
