<svg viewBox="0 0 12 10" fill="none" xmlns="http://www.w3.org/2000/svg">
  <path fill-rule="evenodd" clip-rule="evenodd"
        d="M1 0C0.723858 0 0.5 0.223858 0.5 0.5V8C0.5 8.27614 0.723858 8.5 1 8.5H4.5C4.76522 8.5 5.01957 8.60536 5.20711 8.79289C5.39464 8.98043 5.5 9.23478 5.5 9.5C5.5 9.77614 5.72386 10 6 10C6.27614 10 6.5 9.77614 6.5 9.5C6.5 9.23478 6.60536 8.98043 6.79289 8.79289C6.98043 8.60536 7.23478 8.5 7.5 8.5H11C11.2761 8.5 11.5 8.27614 11.5 8V0.5C11.5 0.223858 11.2761 0 11 0H8C7.33696 0 6.70107 0.263392 6.23223 0.732233C6.14809 0.816373 6.07057 0.905892 6 0.999983C5.92943 0.905892 5.85191 0.816373 5.76777 0.732233C5.29893 0.263392 4.66304 0 4 0H1ZM6.5 7.76794C6.80145 7.59391 7.14588 7.5 7.5 7.5H10.5V1H8C7.60218 1 7.22064 1.15804 6.93934 1.43934C6.65804 1.72064 6.5 2.10218 6.5 2.5V7.76794ZM5.5 7.76794V2.5C5.5 2.10218 5.34196 1.72064 5.06066 1.43934C4.77936 1.15804 4.39782 1 4 1H1.5V7.5H4.5C4.85411 7.5 5.19855 7.59391 5.5 7.76794Z"
        fill="#E72378"/>
</svg>
