<svg width="28" height="32" viewBox="0 0 28 32" fill="none" xmlns="http://www.w3.org/2000/svg">
<path fill-rule="evenodd" clip-rule="evenodd" d="M27.5929 8.68235L27.592 8.65745C27.578 8.35007 27.5688 8.02488 27.5631 7.66306C27.537 5.89866 26.1344 4.4392 24.3698 4.34056C20.6906 4.13524 17.8444 2.93554 15.4125 0.565184L15.3918 0.545409C14.5986 -0.181884 13.4021 -0.181884 12.6086 0.545409L12.5878 0.565184C10.156 2.93554 7.30978 4.13524 3.63059 4.34081C1.8662 4.4392 0.463367 5.89866 0.437244 7.66331C0.431873 8.02268 0.422352 8.34788 0.408436 8.65745L0.406971 8.71531C0.335438 12.467 0.246571 17.1362 1.80858 21.3742C2.66746 23.7048 3.96824 25.7306 5.67453 27.3959C7.61789 29.2924 10.1633 30.798 13.2399 31.8708C13.34 31.9057 13.444 31.934 13.55 31.9552C13.6994 31.985 13.8498 31.9999 14.0002 31.9999C14.1506 31.9999 14.3012 31.985 14.4504 31.9552C14.5563 31.934 14.6611 31.9054 14.7617 31.8703C17.8347 30.7956 20.3774 29.2892 22.319 27.393C24.0246 25.7272 25.3254 23.7009 26.185 21.3698C27.7528 17.1191 27.6642 12.4411 27.5929 8.68235ZM24.4233 20.7202C22.7758 25.1869 19.4128 28.2546 14.142 30.0978C14.1232 30.1042 14.1032 30.1098 14.0825 30.1139C14.028 30.1247 13.9726 30.1247 13.9174 30.1137C13.8969 30.1095 13.8769 30.1042 13.8583 30.0978C8.582 28.258 5.21677 25.1921 3.57054 20.725C2.13084 16.8186 2.21239 12.5324 2.28441 8.7512L2.2849 8.7302C2.29954 8.40525 2.30931 8.06492 2.31468 7.6909C2.3264 6.90745 2.95042 6.25926 3.73533 6.21556C5.81736 6.09935 7.64645 5.69701 9.32711 4.98558C11.0056 4.27513 12.4963 3.27367 13.884 1.92407C13.9545 1.8645 14.0461 1.86425 14.1164 1.92407C15.5043 3.27367 16.9951 4.27513 18.6733 4.98558C20.3539 5.69701 22.183 6.09935 24.2653 6.21556C25.0502 6.25926 25.6742 6.90745 25.6857 7.69114C25.6913 8.06712 25.7011 8.40745 25.7157 8.7302C25.7875 12.5158 25.8671 16.8054 24.4233 20.7202ZM13.9998 8.02563C9.60229 8.02563 6.0249 11.6033 6.0249 16.0005C6.0249 20.398 9.60229 23.9756 13.9998 23.9756C18.397 23.9756 21.9746 20.398 21.9746 16.0005C21.9746 11.6033 18.397 8.02563 13.9998 8.02563ZM13.9998 22.0977C10.6377 22.0977 7.90259 19.3625 7.90259 16.0005C7.90259 12.6384 10.6377 9.90332 13.9998 9.90332C17.3616 9.90332 20.0967 12.6384 20.0967 16.0005C20.0967 19.3625 17.3616 22.0977 13.9998 22.0977ZM12.5876 17.2288L16.2917 13.5247C16.6584 13.1577 17.2529 13.1577 17.6196 13.5247C17.986 13.8911 17.986 14.4856 17.6196 14.8523L13.2514 19.2205C13.0681 19.4038 12.8278 19.4954 12.5876 19.4954C12.3474 19.4954 12.1071 19.4038 11.9238 19.2205L10.2543 17.551C9.88788 17.1846 9.88788 16.5901 10.2543 16.2234C10.621 15.8567 11.2155 15.8567 11.5822 16.2234L12.5876 17.2288Z" fill="black"/>
</svg>
