<svg viewBox="0 0 22 22" fill="none" xmlns="http://www.w3.org/2000/svg">
<path fill-rule="evenodd" clip-rule="evenodd" d="M11 2C6.02944 2 2 6.02944 2 11C2 15.9706 6.02944 20 11 20C15.9706 20 20 15.9706 20 11C20 6.02944 15.9706 2 11 2ZM0 11C0 4.92487 4.92487 0 11 0C17.0751 0 22 4.92487 22 11C22 17.0751 17.0751 22 11 22C4.92487 22 0 17.0751 0 11ZM7 8C7 7.44772 7.44772 7 8 7H8.01C8.56229 7 9.01 7.44772 9.01 8C9.01 8.55229 8.56229 9 8.01 9H8C7.44772 9 7 8.55229 7 8ZM14 7C13.4477 7 13 7.44772 13 8C13 8.55229 13.4477 9 14 9H14.01C14.5623 9 15.01 8.55229 15.01 8C15.01 7.44772 14.5623 7 14.01 7H14ZM6.55279 11.7764C6.67628 11.5294 6.97662 11.4293 7.22361 11.5528L11.0016 13.4418L14.7907 11.575C15.0385 11.453 15.3382 11.5549 15.4602 11.8026C15.5823 12.0503 15.4804 12.35 15.2327 12.4721L12.1246 14.0033L15.2236 15.5528C15.4706 15.6763 15.5707 15.9766 15.4472 16.2236C15.3237 16.4706 15.0234 16.5707 14.7764 16.4472L10.9983 14.5582L7.20928 16.4249C6.96157 16.547 6.66183 16.4451 6.53979 16.1974C6.41775 15.9497 6.51963 15.6499 6.76734 15.5279L9.87533 13.9967L6.77639 12.4472C6.5294 12.3237 6.42929 12.0234 6.55279 11.7764Z" fill="black"/>
</svg>
