<svg width="20" height="19" viewBox="0 0 20 19" fill="none" xmlns="http://www.w3.org/2000/svg">
<path d="M0.345639 9.33L5.23647 11.7675C5.42564 11.8608 5.64897 11.8542 5.82981 11.7483L10.1831 9.2175L7.54814 11.5525C7.41397 11.6717 7.33731 11.8417 7.33731 12.0208V17.7083C7.33731 18.3083 8.10314 18.5608 8.46231 18.0842L10.5765 15.2733L15.8048 18.2508C16.1715 18.4617 16.6415 18.25 16.7265 17.8308L19.9873 1.58083C20.0848 1.0925 19.599 0.694162 19.1473 0.875829L0.397306 8.18833C-0.106027 8.385 -0.138527 9.08916 0.345639 9.33ZM18.5373 2.45583L15.6715 16.7367L10.7173 13.915C10.4473 13.7608 10.0998 13.8292 9.90814 14.0825L8.58731 15.8383V12.3017L15.7131 5.98833C16.2773 5.48916 15.629 4.60166 14.9848 4.98L5.49314 10.4983L2.16647 8.84083L18.5373 2.45583Z" fill="black"/>
</svg>
