<svg width="34" height="29" viewBox="0 0 34 29" fill="none" xmlns="http://www.w3.org/2000/svg">
<path d="M30.6332 14.5842L30.6322 14.5851L17.0436 27.9779C17.0379 27.9812 17.0289 27.9859 17.0174 27.9905C17.0119 27.9927 17.0067 27.9945 17.002 27.996C16.9974 27.9945 16.9922 27.9927 16.9867 27.9905C16.9753 27.9859 16.9664 27.9813 16.9607 27.978L3.37343 14.5276L3.37089 14.5251C-1.68122 9.55935 1.89979 1 8.98576 1C12.47 1 14.2969 2.88927 15.495 4.12828C15.8125 4.45659 16.0858 4.73924 16.3341 4.92899L16.9413 5.39296L17.5485 4.92899C17.7968 4.73924 18.0701 4.45659 18.3876 4.12828C19.5857 2.88927 21.4126 1 24.8969 1C32.113 1 35.6792 9.62446 30.6332 14.5842Z" stroke="black" stroke-width="2"/>
</svg>
