<svg width="34" height="535" viewBox="0 0 34 535" fill="none" xmlns="http://www.w3.org/2000/svg">
<path fill-rule="evenodd" clip-rule="evenodd" d="M8.00001 0.13208L8.00001 9.02408C8.00001 13.9201 10.808 16.9441 15.38 16.9441C18.692 16.9441 20.78 15.3241 21.788 12.7321C22.616 14.4601 24.236 15.6481 26.648 15.6481C30.824 15.6481 33.2 13.0201 33.2 8.59208V0.13208H8.00001ZM22.832 3.26408L30.284 3.26408V8.48408C30.284 11.1841 29.024 12.5521 26.54 12.5521C24.056 12.5521 22.832 11.2201 22.832 8.52008V3.26408ZM10.916 3.26408L19.916 3.26408V8.59208C19.916 12.0481 18.548 13.7761 15.416 13.7761C12.284 13.7761 10.916 12.0481 10.916 8.59208V3.26408ZM0.656006 21.6376V24.6256H9.18801H10.268C8.72001 25.6696 7.71201 27.8656 7.71201 29.9176C7.71201 35.1376 11.672 38.0536 17.072 38.0536C22.472 38.0536 26.432 35.1376 26.432 29.9176C26.432 27.6136 25.208 25.4896 23.804 24.6256H24.884H26.144V21.6376L0.656006 21.6376ZM17.072 34.9576C13.076 34.9576 10.376 32.9416 10.376 29.6296C10.376 26.3536 13.076 24.3376 17.072 24.3376C21.068 24.3376 23.768 26.3176 23.768 29.6296C23.768 32.9416 21.068 34.9576 17.072 34.9576ZM17.864 57.7509C22.616 57.7509 26.432 54.6549 26.432 49.6509C26.432 44.5029 22.22 41.3709 17.072 41.3709C12.032 41.3709 7.71201 44.5029 7.71201 49.6509C7.71201 53.3589 9.26 55.6989 12.824 57.4269L13.904 54.9069C11.42 53.6469 10.376 52.2069 10.376 49.7229C10.376 46.5189 12.896 44.5389 16.604 44.3949L16.604 57.7509H17.864ZM19.16 44.5749C22.148 45.1869 23.768 47.1669 23.768 49.6509C23.768 52.5309 22.004 54.2949 19.16 54.7269V44.5749ZM8 62.1376V65.1256H20.816L9.656 69.9136V72.0016L20.816 76.7896H8L8 79.7416L26.144 79.7416V76.1776L13.796 70.9576L26.144 65.7016V62.1376H8ZM26.144 90.3849C26.144 88.6209 25.64 87.1809 24.596 86.0289C23.588 84.9129 22.292 84.3369 20.672 84.3369C18.332 84.3369 16.532 85.6329 15.704 87.7569L8 83.3649V86.6049L15.236 90.5289V94.1289H8V97.0809H26.144V90.3849ZM17.9 94.1289V90.4209C17.9 88.5129 18.908 87.2889 20.672 87.2889C22.508 87.2889 23.48 88.5129 23.48 90.4209V94.1289H17.9ZM33.2 405.588L18.944 399.504L33.2 393.492V390.216L15.092 397.848L8.00001 394.824L8.00001 397.92L33.2 408.756V405.588ZM3.536 407.598L3.536 410.442H8L8 423.978H3.536L3.536 426.822H10.664V424.23L26.144 424.23V411.882L16.748 411.198C13.436 410.946 11.78 410.478 10.664 409.578V407.598H3.536ZM10.664 412.71C11.636 413.286 13.58 413.682 16.496 413.898L23.48 414.438V421.278H10.664V412.71ZM8 430.524V433.62L21.716 442.224H8V445.176H26.144V442.116L12.428 433.512H26.144V430.524H8ZM8 450.563L8 457.763C8 461.399 10.124 463.703 13.472 463.703C15.524 463.703 17.072 462.587 17.936 460.895C18.656 462.047 19.952 462.839 21.5 462.839C24.488 462.839 26.144 460.715 26.144 457.439V450.563H8ZM18.908 453.551H23.48V457.331C23.48 459.059 22.724 459.923 21.212 459.923C19.664 459.923 18.908 459.059 18.908 457.331V453.551ZM10.664 453.551H16.316V457.403C16.316 459.563 15.344 460.715 13.472 460.715C11.6 460.715 10.664 459.599 10.664 457.403L10.664 453.551ZM8 466.133C7.856 466.601 7.784 467.069 7.784 467.537C7.784 470.453 9.548 471.749 13.472 472.001L23.48 472.721V479.669H8V482.621H26.144V470.165L13.832 469.265C11.348 469.085 10.448 468.617 10.448 467.321C10.448 466.961 10.52 466.565 10.664 466.133H8ZM26.144 493.26C26.144 491.496 25.64 490.056 24.596 488.904C23.588 487.788 22.292 487.212 20.672 487.212C18.332 487.212 16.532 488.508 15.704 490.632L8 486.24V489.48L15.236 493.404V497.004H8V499.956H26.144V493.26ZM17.9 497.004V493.296C17.9 491.388 18.908 490.164 20.672 490.164C22.508 490.164 23.48 491.388 23.48 493.296V497.004H17.9ZM8 509.295V512.247H23.48L23.48 517.791H26.144V503.787H23.48V509.295H8ZM8 521.579L8 528.275C8 532.199 10.196 534.431 13.616 534.431C17.036 534.431 19.196 532.199 19.196 528.275V524.567H26.144V521.579H8ZM10.664 524.567H16.568V527.987C16.568 530.183 15.596 531.263 13.616 531.263C11.6 531.263 10.664 530.183 10.664 527.987V524.567ZM16 124L16 363H18L18 124H16Z" fill="black"/>
</svg>
