<svg viewBox="0 0 66 46" fill="none" xmlns="http://www.w3.org/2000/svg">
<path d="M65.4026 1.22999C65.4026 1.22015 65.4026 1.2114 65.3999 1.20155C65.3972 1.19171 65.3961 1.1671 65.395 1.15015C65.3888 1.07422 65.3736 0.999304 65.3496 0.927022C65.3463 0.917178 65.3496 0.906788 65.3436 0.896944C65.3375 0.8871 65.3381 0.88874 65.3364 0.884365C65.3053 0.804925 65.2635 0.730056 65.2123 0.661787C65.2008 0.646475 65.1888 0.632803 65.1762 0.618038C65.1265 0.55774 65.0695 0.503745 65.0067 0.457256C65.0001 0.452334 64.9947 0.446319 64.9881 0.441944C64.9178 0.395653 64.8417 0.358876 64.7617 0.332569C64.7431 0.326007 64.7245 0.320537 64.707 0.315068C64.6229 0.289812 64.5356 0.276376 64.4478 0.275146H1.55494C1.4671 0.276376 1.37986 0.289812 1.29572 0.315068C1.27658 0.320537 1.25854 0.326007 1.24104 0.332569C1.16107 0.358876 1.08494 0.395653 1.01463 0.441944C1.00807 0.446319 1.0026 0.452334 0.996035 0.457256C0.933188 0.503745 0.876256 0.55774 0.826504 0.618038C0.814473 0.632803 0.801895 0.646475 0.79041 0.661787C0.739203 0.730056 0.697446 0.804925 0.666269 0.884365C0.666269 0.88874 0.660801 0.892569 0.65916 0.896944C0.657519 0.901319 0.656426 0.917178 0.653144 0.927022C0.629107 0.999304 0.613868 1.07422 0.607754 1.15015C0.607754 1.16765 0.602832 1.1846 0.602832 1.20155C0.602832 1.21851 0.600098 1.22015 0.600098 1.22999V44.7694C0.600098 44.782 0.603379 44.794 0.603926 44.8066C0.605521 44.8411 0.60899 44.8754 0.614316 44.9094C0.618691 44.9373 0.62252 44.9641 0.629082 44.9926C0.637523 45.0257 0.647746 45.0584 0.659707 45.0905C0.669004 45.1162 0.677754 45.1419 0.689238 45.1665C0.704403 45.1988 0.721384 45.2302 0.740098 45.2605C0.753223 45.2824 0.766348 45.3048 0.781113 45.3256C0.802316 45.3546 0.825139 45.3823 0.849473 45.4087C0.86752 45.4284 0.885566 45.4481 0.90416 45.4667C0.915644 45.4771 0.924395 45.4897 0.936426 45.5001C0.948457 45.5105 0.956113 45.5094 0.964863 45.5165C1.03952 45.5766 1.12287 45.6251 1.21205 45.6603C1.23119 45.668 1.25088 45.6723 1.27057 45.6783C1.35684 45.7065 1.44672 45.7222 1.53744 45.7248C1.544 45.7248 1.55002 45.7281 1.55658 45.7281H1.56916H64.4336H64.4461C64.4527 45.7281 64.4587 45.7248 64.4647 45.7248C64.5556 45.7223 64.6457 45.7066 64.7322 45.6783C64.7513 45.6723 64.7704 45.668 64.7868 45.6603C64.8762 45.6252 64.9597 45.5767 65.0346 45.5165C65.0433 45.5094 65.0543 45.5072 65.063 45.5001C65.0718 45.493 65.0838 45.4771 65.0953 45.4667C65.115 45.4481 65.133 45.429 65.15 45.4087C65.1743 45.3823 65.1971 45.3546 65.2183 45.3256C65.2331 45.3048 65.2462 45.283 65.2593 45.2605C65.2781 45.2302 65.295 45.1988 65.3102 45.1665C65.3217 45.1419 65.3304 45.1162 65.3397 45.0905C65.3517 45.0584 65.3619 45.0257 65.3704 44.9926C65.3769 44.9652 65.3807 44.9379 65.3851 44.9094C65.3904 44.8754 65.3939 44.8411 65.3955 44.8066C65.3955 44.794 65.3993 44.782 65.3993 44.7694L65.4026 1.22999ZM23.0471 20.9853L32.3757 29.0118C32.5494 29.1611 32.7709 29.2432 33 29.2432C33.2291 29.2432 33.4505 29.1611 33.6242 29.0118L42.9534 20.9853L62.374 43.8124H3.62705L23.0471 20.9853ZM2.51197 42.169V3.31632L21.5979 19.7368L2.51197 42.169ZM44.4026 19.7368L63.4886 3.31632V42.169L44.4026 19.7368ZM61.8649 2.18702L42.4481 18.8946C42.4448 18.8973 42.4404 18.899 42.4371 18.9023C42.4339 18.9055 42.4306 18.9099 42.4268 18.9132L33.0003 27.0239L23.5738 18.9132C23.5699 18.9099 23.5672 18.9055 23.5634 18.9023L23.5524 18.8946L4.13455 2.18702H61.8649Z" fill="#E72378"/>
</svg>
