<svg width="20" height="20" viewBox="0 0 20 20" fill="none" xmlns="http://www.w3.org/2000/svg">
<path fill-rule="evenodd" clip-rule="evenodd" d="M0.671887 20.0283C0.256054 20.0283 -0.0397793 19.6324 0.0693874 19.2374L1.32522 14.6716C-4.08228 4.84576 8.84022 -5.12091 17.1377 2.89909C23.1911 9.14076 18.8827 19.8683 10.0869 19.8683C9.95146 19.8555 9.80544 19.8451 9.64904 19.834C8.67176 19.7645 7.28869 19.6662 5.54522 18.7783C0.926244 19.976 0.813209 20.0271 0.699621 20.0284C0.691029 20.0284 0.682435 20.0283 0.671887 20.0283ZM16.2963 3.8599C16.2119 3.76523 16.1572 3.70386 16.1427 3.67742C8.82606 -3.17341 -2.44811 5.67242 2.53772 14.2758C2.62105 14.4208 2.64355 14.5933 2.59855 14.7549L1.56105 18.5249L5.46355 17.5083C5.66346 17.4552 5.89285 17.5625 6.2476 17.7286C6.86737 18.0186 7.86977 18.4878 9.76605 18.5933C13.4311 18.7916 16.7019 16.6758 18.1194 13.2424C20.1907 8.22939 17.0523 4.70814 16.2963 3.8599ZM15.076 11.9026C15.671 12.9801 14.4835 15.8667 11.1085 15.0634C7.95683 14.3109 3.9585 10.7109 3.9585 7.73675C3.9585 6.37425 4.89266 4.79175 6.09683 4.79175C7.2535 4.79175 7.50933 5.04508 7.84516 5.97925L7.84721 5.98495C7.96285 6.30693 8.12036 6.74546 8.43516 7.37258C8.81086 8.12314 8.26217 8.73691 7.96662 9.06752L7.96433 9.07008C7.95798 9.07722 7.95134 9.08465 7.9445 9.09231C7.90017 9.14195 7.84714 9.20133 7.806 9.25258C8.64933 10.6242 9.47016 11.1067 10.6943 11.7192C10.7592 11.6355 10.821 11.5539 10.8807 11.475C11.407 10.7795 11.7655 10.3058 12.5918 10.6067C12.696 10.6467 14.8377 11.4726 15.076 11.9026ZM6.53683 6.06008C6.4735 6.05008 6.34683 6.04175 6.09683 6.04175C5.786 6.04175 5.2085 6.91258 5.20766 7.73592C5.20766 9.90092 8.50516 13.1559 11.3985 13.8467C13.0843 14.2484 13.9177 13.4517 13.9568 12.5884C13.5185 12.3667 12.5202 11.9251 12.2243 11.8051C12.103 11.9428 11.993 12.0841 11.8877 12.2195C11.4389 12.7964 11.0729 13.2669 10.2577 12.8984C8.746 12.1467 7.691 11.5259 6.63683 9.73592C6.26181 9.09129 6.74745 8.55282 7.07064 8.19447C7.192 8.05992 7.29045 7.95076 7.31183 7.87091C6.96193 7.22557 6.78923 6.74051 6.67109 6.40873C6.61929 6.26323 6.57798 6.14721 6.53683 6.06008Z" fill="black"/>
</svg>
