<svg viewBox="0 0 34 31" fill="none" xmlns="http://www.w3.org/2000/svg">
<path fill-rule="evenodd" clip-rule="evenodd" d="M25.5049 1.6538C26.3628 1.6538 27.2328 1.57359 28.0909 1.41516L34 0.325137V6.78004C34 12.4996 29.2151 17.1528 23.3338 17.1528C20.5389 17.1528 18.645 15.9656 17.2402 15.085C17.1606 15.0351 17.0825 14.9861 17.006 14.9385C15.1642 16.0875 13.3752 17.1528 10.6662 17.1528C8.98456 17.1528 7.39262 16.7717 5.97656 16.0946V30.7145H3.98438V14.8587C1.5564 12.9557 0 10.0415 0 6.78004V0.323875L5.90964 1.41516C6.76721 1.57359 7.63724 1.6538 8.49507 1.6538C11.4029 1.6538 14.2615 2.3783 17.0003 3.80888C19.7411 2.37856 22.5997 1.6538 25.5049 1.6538ZM23.3338 15.2154C28.1166 15.2154 32.0078 11.4313 32.0078 6.78004V2.66462L28.4618 3.31874C27.4818 3.49961 26.4868 3.59118 25.5049 3.59118C22.2362 3.59118 19.6796 4.54272 16.9997 6.03233C14.3925 4.58182 11.8107 3.59118 8.49507 3.59118C7.51299 3.59118 6.51819 3.49961 5.53792 3.31874L1.99219 2.66386V6.78004C1.99219 11.4313 5.88344 15.2154 10.6662 15.2154C12.8581 15.2154 14.29 14.3294 16.0789 13.2224C16.3756 13.0388 16.682 12.8492 17.0034 12.6565C17.3503 12.8632 17.6781 13.0656 17.9935 13.2603C19.7762 14.3608 21.1608 15.2154 23.3338 15.2154ZM16.5366 8.04073C16.7083 8.14299 16.863 8.23509 17.0003 8.31329C17.1381 8.2348 17.2932 8.1424 17.4654 8.03985C18.9444 7.15888 21.6816 5.52856 25.5049 5.52856C26.6115 5.52856 27.7316 5.42538 28.8338 5.22181L30.0156 5.00385V6.78004C30.0156 10.3629 27.0183 13.2781 23.3338 13.2781C21.7849 13.2781 20.7381 12.6358 19.407 11.8191C18.7176 11.3961 17.9518 10.9263 17.0005 10.4747C16.082 10.9122 15.3304 11.3735 14.6473 11.7926C13.3046 12.6166 12.2267 13.2781 10.6662 13.2781C6.98174 13.2781 3.98438 10.3629 3.98438 6.78004V5.0036L5.16646 5.22206C6.26761 5.42538 7.38744 5.52856 8.49507 5.52856C12.3188 5.52856 15.0593 7.16083 16.5366 8.04073ZM6.00821 7.31206C6.28006 9.57712 8.26524 11.3407 10.6662 11.3407C11.6584 11.3407 12.4313 10.8643 13.5448 10.178C13.9507 9.92779 14.4018 9.64971 14.9253 9.35665C13.4976 8.53276 11.3503 7.46594 8.49507 7.46594C7.66837 7.46594 6.83595 7.41422 6.00821 7.31206ZM20.5348 10.2197C21.6276 10.8944 22.3506 11.3407 23.3338 11.3407C25.7348 11.3407 27.7199 9.57712 27.9918 7.31206C27.1635 7.41422 26.3311 7.46594 25.5049 7.46594C22.6502 7.46594 20.5047 8.5315 19.0783 9.35488C19.6419 9.66856 20.1156 9.96095 20.5348 10.2197Z" fill="black"/>
</svg>
