<svg viewBox="0 0 20 20" fill="none" xmlns="http://www.w3.org/2000/svg">
<path d="M2.25583 20H9.5925C9.9375 20 10.2175 19.72 10.2175 19.375C10.2175 19.2417 10.2092 13.675 10.2083 13.5417C10.2083 13.1967 9.92833 12.9167 9.58333 12.9167H7.70833V10.8333H9.58333C9.92833 10.8333 10.2083 10.5533 10.2083 10.2083V7.86083C10.2083 5.82417 11.8658 4.16667 13.9025 4.16667H15.625V6.25H14.5833C13.7792 6.25 13.125 6.90417 13.125 7.70833V10.2083C13.125 10.5533 13.405 10.8333 13.75 10.8333H16.2833L15.7625 12.9167H13.75C13.405 12.9167 13.125 13.1967 13.125 13.5417V19.375C13.125 19.72 13.405 20 13.75 20H17.7442C18.9883 20 20 18.9883 20 17.7442V2.25583C20 1.01167 18.9883 0 17.7442 0H2.25583C1.01167 0 0 1.01167 0 2.25583V17.745C0 18.9883 1.01167 20 2.25583 20ZM1.25 2.25583C1.25 1.70083 1.70083 1.25 2.25583 1.25H17.745C18.3 1.25 18.7508 1.70083 18.7508 2.25583V17.745C18.7508 18.3 18.3 18.7508 17.745 18.7508H14.375V14.1667H16.25C16.5367 14.1667 16.7867 13.9717 16.8567 13.6933L17.69 10.36C17.7883 9.96583 17.4908 9.58333 17.0833 9.58333H14.375V7.70833C14.375 7.595 14.47 7.5 14.5833 7.5H16.25C16.595 7.5 16.875 7.22 16.875 6.875V3.54167C16.875 3.19667 16.595 2.91667 16.25 2.91667H13.9025C11.1767 2.91667 8.95833 5.135 8.95833 7.86083V9.58333H7.08333C6.73833 9.58333 6.45833 9.86333 6.45833 10.2083V13.5417C6.45833 13.8867 6.73833 14.1667 7.08333 14.1667H8.95833V18.75H2.25583C1.70083 18.75 1.25 18.2992 1.25 17.7442V2.25583Z" fill="black"/>
</svg>
